<?xml version="1.0" encoding="utf-8"?>
<!-- Generator: Adobe Illustrator 24.0.0, SVG Export Plug-In . SVG Version: 6.00 Build 0)  -->
<svg version="1.1" id="Layer_1" xmlns="http://www.w3.org/2000/svg" xmlns:xlink="http://www.w3.org/1999/xlink" x="0px" y="0px"
	 viewBox="0 0 100 57" style="enable-background:new 0 0 100 57;" xml:space="preserve">
<style type="text/css">
	.st0{fill:#00DEFF;}
</style>
<title>brand/logo/full</title>
<desc>Created with Sketch.</desc>
<g>
	<g>
		<g>
			<g>
				<path class="st0" d="M29.1,55.1c0.5,0,1.3-0.2,2.1-0.4l0.7-0.2v1.7l-0.5,0.1c-1,0.3-1.8,0.5-2.6,0.5c-2.5,0-4.2-1.5-4.2-4.6
					c0-3.1,1.7-4.6,4.2-4.6c0.7,0,1.6,0.2,2.6,0.4l0.5,0.1v1.7l-0.7-0.2c-0.9-0.2-1.6-0.4-2.1-0.4c-1.6,0-2.4,1-2.4,3
					C26.7,54.1,27.5,55.1,29.1,55.1 M5.8,55.1c-1.6,0-2.4-1-2.4-3c0-2,0.8-3,2.4-3c0.5,0,1.3,0.2,2.1,0.4l0.7,0.2v-1.7l-0.5-0.1
					c-1-0.3-1.8-0.4-2.6-0.4c-2.5,0-4.2,1.6-4.2,4.6c0,3.2,1.7,4.6,4.2,4.6c0.7,0,1.6-0.2,2.6-0.5l0.5-0.1v-1.7l-0.7,0.2
					C7.1,54.9,6.4,55.1,5.8,55.1 M12.5,49.5c0.8-0.3,1.3-0.3,1.8-0.3c1.2,0,1.6,0.7,1.6,1.6v5.9h1.9v-6c0-0.4-0.1-0.8-0.2-1.1
					c0.6-0.2,1.1-0.4,1.9-0.4c1.2,0,1.6,0.7,1.6,1.6v5.9h1.9v-6c0-1.9-0.9-3.2-3.3-3.2c-1,0-2.1,0.3-3,0.7c-0.5-0.5-1.3-0.7-2.4-0.7
					c-0.8,0-1.6,0.1-2.7,0.4c-0.7,0.2-1.1,0.6-1.1,1.4v7.4h1.9V49.5z M38.7,49.5c0.8-0.3,1.3-0.3,1.8-0.3c1.2,0,1.6,0.7,1.6,1.6v5.9
					h1.9v-6c0-0.4-0.1-0.8-0.2-1.1c0.6-0.2,1.1-0.4,1.9-0.4c1.2,0,1.6,0.7,1.6,1.6v5.9h1.9v-6c0-1.9-0.9-3.2-3.3-3.2
					c-1,0-2.1,0.3-3,0.7c-0.5-0.5-1.3-0.7-2.4-0.7c-0.8,0-1.6,0.1-2.7,0.4c-0.7,0.2-1.1,0.6-1.1,1.4v7.4h1.9V49.5z M58.7,54.1
					c0,0,0,0.2,0,0.8c0,0.6-0.3,1-0.8,1.4c-0.6,0.5-2.7,0.5-2.7,0.5c-0.8,0-4.4,0.2-4.4-2.8c0-2.2,1.9-2.8,4.1-2.8h1.9v-0.6
					c0-1.1-0.3-1.5-1.8-1.5c-0.7,0-1.8,0.2-2.8,0.5l-0.1,0v-1.7c1.1-0.3,2.1-0.5,3-0.5c2.4,0,3.5,0.9,3.5,3.1V54.1 M56.8,54.7
					c0-0.1,0-0.3,0-0.3v-1.8h-2.2c-1.2,0-2,0.4-2,1.4c0,1.4,1.8,1.3,2.5,1.3c0,0,1.2-0.1,1.5-0.2C56.8,55,56.8,54.9,56.8,54.7
					 M65.2,47.5c-0.4,0-0.8-0.1-1.2-0.1c-2.4,0-3.5,0.9-3.5,3.1v6.1h1.9v-6.1c0-1.1,0.3-1.5,1.7-1.5c0.3,0,0.6,0,0.9,0.1V47.5z
					 M75.2,56.7l-3.5-6l2.8-3.1h-2.4L69,51.1v-6.3h-1.9v11.9H69v-1.5c0-1-0.1-1.4,0.4-2l0.8-0.9l2.7,4.4H75.2z M90.8,54.8
					c-0.3,0.2-0.9,0.4-1.6,0.4c-0.9,0-1.2-0.6-1.2-1.5v-4.5h2.5v-1.5h-2.5v-2.8H86v2.8h-1.3v1.5H86v4.4c0,2.1,0.9,3.2,2.9,3.2
					c0.9,0,1.5-0.2,1.9-0.4V54.8z M83.1,56.3l-0.1,0c-1.2,0.4-1.9,0.4-3,0.4c-2.7,0-4.5-1.5-4.5-4.6c0-3.3,2-4.7,4.2-4.7
					c2.5,0,4.1,1.4,4.1,4.4c0,0.6-0.3,0.9-0.9,0.9h-5.6c0.1,1.6,1.2,2.4,2.7,2.4c0.8,0,1.5,0,2.5-0.3l0.4-0.1V56.3z M79.7,48.9
					c-1.4,0-2.2,0.9-2.3,2.5H82C82,50,81.4,48.9,79.7,48.9 M94.8,52.7l1.7,0.2c0.9,0.1,1.3,0.5,1.3,1.1c0,0.9-0.9,1.2-1.8,1.2
					c-0.9,0-1.6,0-3-0.4l-0.5-0.2v1.6l0.3,0.1c1.2,0.3,2.1,0.4,3.2,0.4c2,0,3.6-0.9,3.6-2.8c0-1.4-0.9-2.2-2.5-2.5l-1.7-0.2
					c-0.9-0.2-1.3-0.5-1.3-1c0-0.8,0.7-1.2,1.5-1.2c1,0,1.9,0.3,2.9,0.5l0.1,0v-1.7c-1.1-0.3-1.9-0.5-3.1-0.5c-1.8,0-3.4,1-3.4,2.8
					C92.3,51.7,93.2,52.5,94.8,52.7 M29,28.1l-2.7,0.8c-3.5,1-6.3,1.6-8.5,1.6c-6.3,0-9.6-3.8-9.6-11.8c0-8.1,3.2-11.9,9.6-11.9
					c2.2,0,5,0.7,8.5,1.7L29,9.3V2.5L27.3,2c-3.9-1.1-7.3-1.8-10.2-1.8c-10,0-16.8,6.3-16.8,18.5c0,12.6,6.8,18.5,16.8,18.5
					c3,0,6.3-0.7,10.2-1.8l1.7-0.5V28.1z M99.3,28.1l-2.7,0.8c-3.5,1-6.3,1.6-8.5,1.6c-6.3,0-9.6-3.8-9.6-11.8
					c0-8.1,3.2-11.9,9.6-11.9c2.2,0,5,0.7,8.5,1.7l2.7,0.8V2.5L97.6,2c-3.9-1.1-7.3-1.8-10.2-1.8c-10,0-16.8,6.3-16.8,18.5
					c0,12.6,6.8,18.5,16.8,18.5c3,0,6.3-0.7,10.2-1.8l1.7-0.5V28.1z M66,34.7V0.3c-1.1,0.2-2.2,0.5-3.4,0.9c-3,1-4.6,2.5-4.6,5.7
					v3.2l0,0v26.6H64C65.1,36.8,66,35.8,66,34.7 M52.2,36.8c1.1,0,2.1-0.9,2.1-2.1V13.6l0,0v-3.2c0-3.2-1.6-4.7-4.6-5.7
					c-1.2-0.4-2.3-0.7-3.4-0.9v32.9H52.2z M40.5,36.8c1.1,0,2.1-0.9,2.1-2.1V13.6l0,0v-3.2c0-3.2-1.6-4.7-4.6-5.7
					c-1.2-0.4-2.3-0.7-3.4-0.9v32.9H40.5z"/>
			</g>
		</g>
	</g>
</g>
</svg>
